# xmcd
#
# Track frame offsets:
#	150
#	9095
#	20103
#	31389
#	44657
#	55160
#	65400
#	78113
#	87540
#	97573
#	108689
#	118415
#	130327
#	141740
#	150516
#	159157
#	171464
#	181993
#	193139
#	204845
#	217588
#	226302
#	238015
#	250450
#	262656
#	273892
#	287254
#	299646
#
# Disc length: 4168 seconds
#
# Revision: 0
# Processed by: cddbd v1.5.2PL0 Copyright (c) Steve Scherf et al.
# Submitted via: audiograbber 1.83.01
#
DISCID=8a10461c
DTITLE=Vernon Oxford - Letme Sing You A Song
DYEAR=1960
DGENRE=Country
TTITLE0=Water Melon Time In Georgia
TTITLE1=Roll Big Wheels Roll
TTITLE2=Woman Let Me Sing You A Song
TTITLE3=Move To Town In The Fall
TTITLE4=Nashville Women
TTITLE5=Goin Home  Version 1
TTITLE6=Let Me Take A Cold Shower
TTITLE7=Fields Of Flowers
TTITLE8=Hide
TTITLE9=Stone By Stone
TTITLE10=Behind Every Good Man Theres A Woman
TTITLE11=Forgetfulness For Sale
TTITLE12=Baby Sister
TTITLE13=Goin Home Version 2
TTITLE14=Honky Tonk Girls
TTITLE15=Babies Stop Your Cryin
TTITLE16=Blues Come On In
TTITLE17=Treat Yourself Right
TTITLE18=Little Sister Throw Your Red Shoes Away
TTITLE19=The Old Folks Home
TTITLE20=Thats The Way I Talk
TTITLE21=Touch Of Gods Hand
TTITLE22=Come Back And See Us
TTITLE23=This Woman Is Mine
TTITLE24=Mansion On The Hill
TTITLE25=Wedding Bells
TTITLE26=Dont Let Little Things Like That Stand In Your Way
TTITLE27=You Win Again
EXTD=
EXTT0=
EXTT1=
EXTT2=
EXTT3=
EXTT4=
EXTT5=
EXTT6=
EXTT7=
EXTT8=
EXTT9=
EXTT10=
EXTT11=
EXTT12=
EXTT13=
EXTT14=
EXTT15=
EXTT16=
EXTT17=
EXTT18=
EXTT19=
EXTT20=
EXTT21=
EXTT22=
EXTT23=
EXTT24=
EXTT25=
EXTT26=
EXTT27=
PLAYORDER=
